# xmcd CD database file
#
# Track frame offsets:
#	150
#	20533
#	37650
#
# Disc length: 664 seconds
#
# Revision: 0
# Processed by: cddbd v1.5PL3 Copyright (c) Steve Scherf et al.
# Submitted via: CDex 1.51
#
DISCID=15029603
DTITLE=BEGIN - ボトル二本とチョコレート
DYEAR=2002
DGENRE=JPop
TTITLE0=ボトル二本とチョコレート
TTITLE1=悲しきマングースー
TTITLE2=平助オジー
EXTD=YEAR: 2002
EXTT0=
EXTT1=
EXTT2=
PLAYORDER=
